PathFileType	4	(X/Y/Z)	./resultDataOpenSim/trcMotMarkerGrf/sub06/qtm-15-01.trc
DataRate	CameraRate	NumFrames	NumMarkers	Units	OrigDataRate	OrigDataStartFrame	OrigNumFrames
250.000000	250.000000	14	24	m	250.000000	129	513
Frame#	Time	L.Toe.Tip			R.Toe.Tip			L.Ankle.Lat			R.Ankle.Lat			L.Ankle.Med			R.Ankle.Med			L.Heel			R.Heel			L.Knee.Lat			R.Knee.Lat			L.Knee.Med			R.Knee.Med			L.Thigh.Upper			R.Thigh.Upper			L.ASIS			R.ASIS			V.Sacral			L.Acromium			R.Acromium			C7			L.Elbow			R.Elbow			L.Wrist.Lat			R.Wrist.Lat
		X1	Y1	Z1	X2	Y2	Z2	X3	Y3	Z3	X4	Y4	Z4	X5	Y5	Z5	X6	Y6	Z6	X7	Y7	Z7	X8	Y8	Z8	X9	Y9	Z9	X10	Y10	Z10	X11	Y11	Z11	X12	Y12	Z12	X13	Y13	Z13	X14	Y14	Z14	X15	Y15	Z15	X16	Y16	Z16	X17	Y17	Z17	X18	Y18	Z18	X19	Y19	Z19	X20	Y20	Z20	X21	Y21	Z21	X22	Y22	Z22	X23	Y23	Z23	X24	Y24	Z24

129	0.512	0.04732914	0.13221916	-0.044179175	-0.71600168	0.035364208	0.12891101	-0.076481002	0.098720016	-0.065184434	-0.83688947	0.098586724	0.14995362	-0.082125675	0.11197138	0.01978545	-0.80724413	0.10793808	0.06464607	-0.11949224	0.031619618	-0.016152036	-0.89382736	0.091551914	0.087395641	-0.22549604	0.43361531	-0.063671558	-0.61994548	0.42383482	0.17981196	-0.25002875	0.42186206	0.061138789	-0.63507667	0.42277253	0.046105355	-0.41177631	0.76729701	-0.11283793	-0.51196008	0.76872431	0.22858577	-0.35369057	0.81090721	-0.055197223	-0.39426406	0.8118515	0.19672932	-0.5520117	0.88983225	0.042331426	-0.43911327	1.2981827	-0.13123164	-0.4179423	1.29135	0.226751	-0.50449228	1.3321771	0.052226689	-0.5609277	1.0105904	-0.17874015	-0.35410051	0.98675084	0.33164175	-0.49258351	0.78291759	-0.23281099	-0.11186451	0.97850798	0.26797839
130	0.516	0.055114476	0.13004839	-0.04346007	-0.71587451	0.03539985	0.1289447	-0.06864168	0.096960832	-0.064985113	-0.83574503	0.1001549	0.15060851	-0.074581087	0.11003647	0.019944265	-0.80601682	0.10923013	0.06520584	-0.11208091	0.029916677	-0.01628142	-0.89268457	0.09405447	0.088162617	-0.2166513	0.43247915	-0.063785325	-0.61509542	0.4226806	0.17985263	-0.24106438	0.42102954	0.060981128	-0.62906419	0.42173903	0.046204291	-0.40355948	0.76574372	-0.11317429	-0.50648868	0.76712336	0.22831234	-0.34526004	0.80872721	-0.055139471	-0.38908896	0.81042435	0.19816005	-0.54349941	0.88758754	0.04104926	-0.43208535	1.2960692	-0.13179026	-0.41108769	1.2896396	0.22631482	-0.49742255	1.3302636	0.051621208	-0.55449299	1.0090158	-0.17906497	-0.34603285	0.98525374	0.33129871	-0.4884558	0.7809711	-0.23393254	-0.10392887	0.97900686	0.26686811
131	0.52	0.06235375	0.12743197	-0.04272223	-0.71572855	0.035447748	0.12898566	-0.061335297	0.09493762	-0.064743555	-0.83449438	0.10179067	0.15130754	-0.067484376	0.10784314	0.020163216	-0.80471658	0.11063275	0.065828478	-0.1052776	0.028021972	-0.016365186	-0.89144033	0.096739675	0.089014557	-0.2077851	0.4313819	-0.063930053	-0.6099878	0.42156913	0.17994319	-0.23197994	0.42032565	0.060834471	-0.62318639	0.42064006	0.046304953	-0.3953257	0.76429551	-0.11355874	-0.50044614	0.76530504	0.22779948	-0.33689847	0.80665333	-0.055117506	-0.38301653	0.80890194	0.19917051	-0.53564716	0.88575171	0.040474291	-0.42503115	1.2940033	-0.13238151	-0.40416301	1.2879711	0.22582914	-0.49032742	1.3283919	0.050988838	-0.54791176	1.0074721	-0.1793826	-0.33807214	0.98377774	0.33090912	-0.48420471	0.77908815	-0.23504543	-0.096105206	0.97938524	0.26578036
132	0.524	0.069059635	0.12439101	-0.04199769	-0.71555502	0.035505133	0.12903272	-0.054556141	0.092644118	-0.064444287	-0.83311908	0.10349359	0.15202606	-0.060821188	0.10542238	0.02044081	-0.80330917	0.11214202	0.066503168	-0.09906951	0.025945587	-0.01636065	-0.89012675	0.099669842	0.089954147	-0.19889272	0.43034406	-0.064097249	-0.60457644	0.42053012	0.18009619	-0.222845	0.41971682	0.060650423	-0.61737727	0.41947592	0.046402542	-0.38707018	0.7629405	-0.11394802	-0.49386642	0.7635509	0.22678366	-0.32857106	0.80472401	-0.055089618	-0.37569897	0.8071861	0.19947791	-0.52888205	0.8845079	0.040891016	-0.41790967	1.2919847	-0.13301184	-0.39715421	1.2863344	0.2252874	-0.48319666	1.3265639	0.050319554	-0.54121381	1.0059618	-0.17968314	-0.33022235	0.98232223	0.33047865	-0.47979748	0.77726901	-0.23614827	-0.088390864	0.97963974	0.26471633
133	0.528	0.075258804	0.12096337	-0.041300021	-0.71534024	0.035568158	0.12908289	-0.048300702	0.090074754	-0.064089342	-0.83159029	0.10528284	0.15276218	-0.054622019	0.10278886	0.0207504	-0.80174976	0.11374525	0.067221911	-0.093489736	0.02368585	-0.016301595	-0.8886691	0.10282673	0.090890718	-0.18997633	0.42938342	-0.064278259	-0.59887577	0.41955384	0.18029539	-0.21371569	0.41916932	0.060398882	-0.61156244	0.41826553	0.046486345	-0.37880358	0.76166864	-0.11432809	-0.48688866	0.76224811	0.22509953	-0.32021828	0.80298614	-0.055019436	-0.36708654	0.80525371	0.19895078	-0.52273951	0.88361683	0.041839216	-0.41069906	1.2900106	-0.13367829	-0.39006472	1.2847306	0.22468829	-0.47601954	1.324771	0.049605254	-0.53441764	1.0044899	-0.17996095	-0.32248772	0.98088754	0.3300142	-0.47522094	0.77551267	-0.23723993	-0.080780847	0.97976593	0.26367665
134	0.532	0.080973517	0.1171906	-0.040642056	-0.71507139	0.035632326	0.12913106	-0.042565938	0.087234292	-0.063688064	-0.82988218	0.10718541	0.15353111	-0.048915963	0.099963421	0.021075536	-0.79999605	0.1154338	0.067982305	-0.088545453	0.021243961	-0.016209994	-0.8869036	0.10613636	0.091677461	-0.18104855	0.42851022	-0.064465212	-0.59292801	0.418621	0.18052078	-0.20461264	0.41866242	0.060089936	-0.60566587	0.41703423	0.046536027	-0.37048544	0.7604791	-0.11470279	-0.47960295	0.76147401	0.22308023	-0.31182576	0.80145473	-0.05490688	-0.35760341	0.80318886	0.19772192	-0.51602411	0.88253107	0.042294318	-0.40336471	1.2880814	-0.13437194	-0.38291238	1.2831729	0.22403589	-0.46879324	1.3230063	0.048848105	-0.52752643	1.0030565	-0.18022274	-0.31486828	0.97947425	0.32952003	-0.47046983	0.77381827	-0.23832135	-0.073269213	0.97976301	0.26266246
135	0.536	0.086210789	0.11310693	-0.040040485	-0.71474507	0.035692721	0.12917598	-0.03734516	0.084144668	-0.06324661	-0.8279893	0.10921001	0.15434393	-0.043712895	0.09698376	0.021431207	-0.79803337	0.11721206	0.068787541	-0.084192606	0.018644009	-0.016050792	-0.88475286	0.10957764	0.092254087	-0.17212839	0.42772288	-0.064656201	-0.58677678	0.41771624	0.18076379	-0.19554201	0.41817955	0.059746557	-0.59959741	0.41580801	0.046544059	-0.36199172	0.75938289	-0.1150812	-0.47177008	0.76074807	0.2215305	-0.30341993	0.80009887	-0.054801913	-0.34799385	0.80113679	0.196163	-0.50779023	0.88087719	0.041479684	-0.3958587	1.286204	-0.1350846	-0.3757202	1.281678	0.22333311	-0.46151897	1.3212738	0.048055541	-0.52053252	1.0016521	-0.18048671	-0.3073539	0.97808098	0.32899593	-0.46554132	0.77218242	-0.23939625	-0.065853447	0.97963364	0.26167652
136	0.54	0.090968515	0.10874628	-0.039503352	-0.7143749	0.035746121	0.12922895	-0.032623945	0.080838544	-0.062768074	-0.82592743	0.11133971	0.15519579	-0.039017911	0.093894247	0.021853584	-0.79590622	0.11907843	0.06964283	-0.080387042	0.015931967	-0.015796939	-0.88230395	0.11316113	0.09272382	-0.16323738	0.42700406	-0.064856862	-0.58045905	0.41682509	0.18102626	-0.18652012	0.41769347	0.059378649	-0.59325848	0.41461069	0.046561241	-0.35324122	0.75839347	-0.11547982	-0.46288672	0.75940528	0.22098739	-0.29501111	0.79887878	-0.054767904	-0.33886254	0.79920115	0.1946849	-0.49827114	0.87883654	0.039626486	-0.38819315	1.2843854	-0.13581798	-0.36850267	1.2802542	0.22257871	-0.45419513	1.3195823	0.047231078	-0.51342737	1.0002672	-0.18076658	-0.29993914	0.97671409	0.3284412	-0.46044044	0.77059871	-0.2404671	-0.05853816	0.97938091	0.26072209
137	0.544	0.095240053	0.10415746	-0.039028562	-0.71399095	0.035793908	0.12931261	-0.028379149	0.077351024	-0.062254981	-0.82370804	0.11355611	0.15607483	-0.034824466	0.090726448	0.022372553	-0.79368695	0.1210091	0.07054722	-0.077110737	0.013155816	-0.015463661	-0.87970331	0.11684242	0.093289717	-0.15439713	0.42632209	-0.065073572	-0.57398607	0.41593691	0.18131445	-0.177578	0.41716185	0.058974848	-0.58659278	0.41347308	0.046712652	-0.34432726	0.75750448	-0.11589792	-0.45286982	0.75719079	0.22114439	-0.28655682	0.79779449	-0.05481136	-0.3304016	0.7974142	0.19355046	-0.48859235	0.87690315	0.037730586	-0.38047251	1.2826265	-0.1365867	-0.36126207	1.2788991	0.22177388	-0.44681676	1.3179363	0.046371311	-0.50621056	0.99890473	-0.18106234	-0.29263318	0.97538804	0.3278559	-0.45518497	0.76906049	-0.2415378	-0.05133073	0.97900356	0.25980203
138	0.548	0.099023869	0.099401088	-0.038621569	-0.71362095	0.035840605	0.12944376	-0.024578601	0.073717371	-0.061710708	-0.82132001	0.11585778	0.15697436	-0.031076068	0.087482331	0.022980616	-0.79136702	0.12297573	0.07149172	-0.074334708	0.0103421	-0.015043079	-0.87701868	0.1205558	0.094099413	-0.1456306	0.42563878	-0.065301452	-0.56732444	0.41505188	0.18163546	-0.16874707	0.41653981	0.058517116	-0.5797239	0.41242303	0.047135867	-0.33541752	0.75667964	-0.11629879	-0.44257563	0.7544946	0.22124463	-0.27801236	0.79687235	-0.054888705	-0.32258207	0.79581774	0.19285183	-0.47953117	0.87531414	0.036466671	-0.37278742	1.2809268	-0.13740074	-0.35399674	1.2776068	0.2209255	-0.4393796	1.3163349	0.045470149	-0.49888972	0.997578	-0.18136702	-0.28544428	0.97410721	0.3272392	-0.4497976	0.76756594	-0.24261632	-0.044232788	0.97849489	0.2589195
139	0.552	0.10235393	0.094513506	-0.038303369	-0.71326138	0.035887739	0.12961162	-0.021181999	0.069972764	-0.061142298	-0.81874264	0.11825083	0.1578929	-0.027667671	0.08414162	0.023630922	-0.78881862	0.1249724	0.072471115	-0.071986163	0.007491933	-0.014465667	-0.87419752	0.12430163	0.095126486	-0.13697075	0.42491813	-0.065520784	-0.56040531	0.41417987	0.18199793	-0.16003209	0.41580154	0.058017783	-0.57294452	0.41145529	0.047896489	-0.32655893	0.75588419	-0.11665085	-0.43331306	0.75211131	0.22092434	-0.26937018	0.79611153	-0.054973701	-0.31545282	0.79450822	0.19259265	-0.47095313	0.87391666	0.035688424	-0.36512339	1.2792892	-0.13824929	-0.3467087	1.2763745	0.22003984	-0.43188408	1.3147734	0.044525325	-0.49147293	0.99629774	-0.18167544	-0.27837226	0.9728575	0.32659553	-0.44427082	0.76612294	-0.24370296	-0.037239564	0.97784981	0.25807786
140	0.556	0.10531515	0.089473708	-0.038071855	-0.71287204	0.035933718	0.12977985	-0.018147999	0.066150655	-0.06056046	-0.81596346	0.12073498	0.15883092	-0.02451352	0.080695438	0.024278649	-0.78591462	0.127016	0.073490588	-0.069969463	0.0045992458	-0.013679676	-0.87112362	0.12814632	0.096213322	-0.12846386	0.42413171	-0.06570515	-0.55318157	0.41332074	0.18240743	-0.15140336	0.41494421	0.057529949	-0.56640987	0.41051151	0.048925324	-0.31765879	0.75512299	-0.11696424	-0.4258755	0.7506816	0.22046574	-0.26063113	0.79547363	-0.055073235	-0.30901337	0.79352683	0.19272839	-0.4624219	0.87248729	0.03503379	-0.35741068	1.2777148	-0.13911135	-0.33940459	1.2752005	0.21912029	-0.42433557	1.3132439	0.043539709	-0.48396211	0.99506613	-0.18198876	-0.27142099	0.97162005	0.32594187	-0.43853819	0.76474799	-0.24477883	-0.030346439	0.97707084	0.25728004
141	0.56	0.10800327	0.084234097	-0.037861257	-0.71241188	0.035980993	0.12991908	-0.01543921	0.062277704	-0.059978176	-0.81297484	0.12330756	0.15979238	-0.02158926	0.077164125	0.024908306	-0.78263766	0.12912054	0.074555731	-0.068206052	0.0016672435	-0.012731255	-0.86768105	0.13214264	0.097221068	-0.12015405	0.42325808	-0.065830999	-0.54568565	0.41244363	0.18285717	-0.14283656	0.4139647	0.057097662	-0.55989937	0.40950317	0.050027148	-0.30861416	0.75442493	-0.11726197	-0.42002593	0.75021832	0.22029551	-0.25178886	0.79491683	-0.05520071	-0.30272554	0.7927073	0.19311781	-0.45376263	0.87092601	0.034468941	-0.349608	1.2761999	-0.13997478	-0.33209131	1.2740804	0.21817197	-0.4167477	1.3117392	0.042519888	-0.4763541	0.99388091	-0.18231434	-0.26460121	0.97038691	0.32529815	-0.43252492	0.76345538	-0.24582289	-0.023553198	0.97616419	0.25652849
142	0.564	0.11047518	0.07879295	-0.037585988	-0.71187631	0.036035129	0.13003105	-0.013014683	0.058368255	-0.059412026	-0.80976864	0.12597297	0.16078456	-0.018902271	0.073578236	0.025511254	-0.779039	0.13128188	0.075664689	-0.066655756	-0.0012842043	-0.011747531	-0.86378134	0.13628168	0.098121945	-0.11206497	0.42227383	-0.065889497	-0.53797947	0.41150359	0.18334156	-0.13436398	0.41284226	0.056710933	-0.55300522	0.4083782	0.051024212	-0.2994009	0.75379788	-0.1175481	-0.41451142	0.75006019	0.22042836	-0.24284249	0.79441746	-0.055364225	-0.29546033	0.79171013	0.19350251	-0.44504111	0.86923956	0.034152739	-0.34172206	1.2747431	-0.14084023	-0.32477184	1.2730089	0.21720187	-0.40915095	1.3102589	0.041479342	-0.46864699	0.99273885	-0.18266193	-0.25792253	0.96916237	0.32467228	-0.42624043	0.7622451	-0.246845	-0.01686253	0.97513181	0.25582486
